<mxfile host="app.diagrams.net" modified="2020-10-24T13:58:56.772Z" agent="5.0 (Windows NT 10.0; WOW64) AppleWebKit/537.36 (KHTML, like Gecko) Chrome/78.0.3904.108 Safari/537.36" etag="_WuvarQckgllkg2VbOmE" version="13.8.1" type="github">
  <diagram id="yHeF4_bzrxLTXPKwY5sZ" name="Page-1">
    <mxGraphModel dx="2203" dy="1894" grid="1" gridSize="10" guides="1" tooltips="1" connect="1" arrows="1" fold="1" page="1" pageScale="1" pageWidth="827" pageHeight="1169" math="0" shadow="0">
      <root>
        <mxCell id="0" />
        <mxCell id="1" parent="0" />
        <mxCell id="8tCWAQmAQTB_diqJKxat-94" style="edgeStyle=orthogonalEdgeStyle;rounded=0;orthogonalLoop=1;jettySize=auto;html=1;entryX=0;entryY=0.5;entryDx=0;entryDy=0;" parent="1" source="8tCWAQmAQTB_diqJKxat-1" target="8tCWAQmAQTB_diqJKxat-35" edge="1">
          <mxGeometry relative="1" as="geometry" />
        </mxCell>
        <mxCell id="8tCWAQmAQTB_diqJKxat-114" style="edgeStyle=orthogonalEdgeStyle;rounded=0;orthogonalLoop=1;jettySize=auto;html=1;" parent="1" target="8tCWAQmAQTB_diqJKxat-55" edge="1">
          <mxGeometry relative="1" as="geometry">
            <Array as="points">
              <mxPoint x="725" y="310" />
              <mxPoint x="725" y="310" />
            </Array>
            <mxPoint x="725" y="460" as="sourcePoint" />
          </mxGeometry>
        </mxCell>
        <mxCell id="d_4f9FTK0BvBkenBgBJO-53" style="edgeStyle=orthogonalEdgeStyle;rounded=0;orthogonalLoop=1;jettySize=auto;html=1;startArrow=none;startFill=0;endArrow=classic;endFill=1;entryX=0.5;entryY=0;entryDx=0;entryDy=0;" edge="1" parent="1" source="8tCWAQmAQTB_diqJKxat-1" target="8tCWAQmAQTB_diqJKxat-30">
          <mxGeometry relative="1" as="geometry">
            <mxPoint x="500" y="50" as="targetPoint" />
            <Array as="points">
              <mxPoint x="725" />
              <mxPoint x="350" />
            </Array>
          </mxGeometry>
        </mxCell>
        <mxCell id="8tCWAQmAQTB_diqJKxat-1" value="商家管理员" style="shape=umlActor;verticalLabelPosition=bottom;verticalAlign=top;html=1;outlineConnect=0;" parent="1" vertex="1">
          <mxGeometry x="700" y="190" width="50" height="90" as="geometry" />
        </mxCell>
        <mxCell id="d_4f9FTK0BvBkenBgBJO-6" style="edgeStyle=orthogonalEdgeStyle;rounded=0;orthogonalLoop=1;jettySize=auto;html=1;startArrow=none;startFill=0;endArrow=classic;endFill=1;" edge="1" parent="1" source="8tCWAQmAQTB_diqJKxat-3">
          <mxGeometry relative="1" as="geometry">
            <mxPoint x="-355" y="110" as="targetPoint" />
          </mxGeometry>
        </mxCell>
        <mxCell id="d_4f9FTK0BvBkenBgBJO-15" style="edgeStyle=orthogonalEdgeStyle;rounded=0;orthogonalLoop=1;jettySize=auto;html=1;startArrow=none;startFill=0;endArrow=classic;endFill=1;" edge="1" parent="1" source="8tCWAQmAQTB_diqJKxat-3">
          <mxGeometry relative="1" as="geometry">
            <mxPoint x="-355" y="490" as="targetPoint" />
          </mxGeometry>
        </mxCell>
        <mxCell id="8tCWAQmAQTB_diqJKxat-3" value="客户" style="shape=umlActor;verticalLabelPosition=bottom;verticalAlign=top;html=1;outlineConnect=0;" parent="1" vertex="1">
          <mxGeometry x="-380" y="210" width="50" height="90" as="geometry" />
        </mxCell>
        <mxCell id="8tCWAQmAQTB_diqJKxat-97" style="edgeStyle=orthogonalEdgeStyle;rounded=0;orthogonalLoop=1;jettySize=auto;html=1;" parent="1" target="8tCWAQmAQTB_diqJKxat-43" edge="1">
          <mxGeometry relative="1" as="geometry">
            <mxPoint x="760" y="260" as="sourcePoint" />
            <Array as="points">
              <mxPoint x="770" y="260" />
              <mxPoint x="770" y="410" />
              <mxPoint x="810" y="410" />
            </Array>
          </mxGeometry>
        </mxCell>
        <mxCell id="8tCWAQmAQTB_diqJKxat-99" style="edgeStyle=orthogonalEdgeStyle;rounded=0;orthogonalLoop=1;jettySize=auto;html=1;" parent="1" source="8tCWAQmAQTB_diqJKxat-6" target="8tCWAQmAQTB_diqJKxat-59" edge="1">
          <mxGeometry relative="1" as="geometry">
            <Array as="points">
              <mxPoint x="1190" y="205" />
            </Array>
          </mxGeometry>
        </mxCell>
        <mxCell id="8tCWAQmAQTB_diqJKxat-105" style="edgeStyle=orthogonalEdgeStyle;rounded=0;orthogonalLoop=1;jettySize=auto;html=1;" parent="1" source="8tCWAQmAQTB_diqJKxat-6" target="8tCWAQmAQTB_diqJKxat-35" edge="1">
          <mxGeometry relative="1" as="geometry">
            <Array as="points">
              <mxPoint x="1110" y="245" />
              <mxPoint x="1110" y="245" />
            </Array>
          </mxGeometry>
        </mxCell>
        <mxCell id="d_4f9FTK0BvBkenBgBJO-60" style="edgeStyle=orthogonalEdgeStyle;rounded=0;orthogonalLoop=1;jettySize=auto;html=1;entryX=1;entryY=0.5;entryDx=0;entryDy=0;startArrow=none;startFill=0;endArrow=classic;endFill=1;" edge="1" parent="1" source="8tCWAQmAQTB_diqJKxat-6" target="8tCWAQmAQTB_diqJKxat-36">
          <mxGeometry relative="1" as="geometry">
            <Array as="points">
              <mxPoint x="1175" y="60" />
            </Array>
          </mxGeometry>
        </mxCell>
        <mxCell id="8tCWAQmAQTB_diqJKxat-6" value="平台管理员" style="shape=umlActor;verticalLabelPosition=bottom;verticalAlign=top;html=1;outlineConnect=0;" parent="1" vertex="1">
          <mxGeometry x="1150" y="200" width="50" height="90" as="geometry" />
        </mxCell>
        <mxCell id="d_4f9FTK0BvBkenBgBJO-14" style="edgeStyle=orthogonalEdgeStyle;rounded=0;orthogonalLoop=1;jettySize=auto;html=1;startArrow=classic;startFill=1;endArrow=none;endFill=0;" edge="1" parent="1" source="8tCWAQmAQTB_diqJKxat-12">
          <mxGeometry relative="1" as="geometry">
            <mxPoint x="-390" y="245" as="targetPoint" />
          </mxGeometry>
        </mxCell>
        <mxCell id="8tCWAQmAQTB_diqJKxat-12" value="" style="ellipse;whiteSpace=wrap;html=1;" parent="1" vertex="1">
          <mxGeometry x="-570" y="210" width="100" height="70" as="geometry" />
        </mxCell>
        <mxCell id="8tCWAQmAQTB_diqJKxat-117" style="edgeStyle=orthogonalEdgeStyle;rounded=0;orthogonalLoop=1;jettySize=auto;html=1;startArrow=classic;startFill=1;endArrow=none;endFill=0;" parent="1" source="8tCWAQmAQTB_diqJKxat-13" target="8tCWAQmAQTB_diqJKxat-20" edge="1">
          <mxGeometry relative="1" as="geometry">
            <Array as="points">
              <mxPoint x="-40" y="210" />
              <mxPoint x="-40" y="210" />
            </Array>
          </mxGeometry>
        </mxCell>
        <mxCell id="8tCWAQmAQTB_diqJKxat-13" value="" style="ellipse;whiteSpace=wrap;html=1;" parent="1" vertex="1">
          <mxGeometry x="-50" y="170" width="100" height="70" as="geometry" />
        </mxCell>
        <mxCell id="d_4f9FTK0BvBkenBgBJO-18" style="edgeStyle=orthogonalEdgeStyle;rounded=0;orthogonalLoop=1;jettySize=auto;html=1;startArrow=classic;startFill=1;endArrow=none;endFill=0;" edge="1" parent="1" source="8tCWAQmAQTB_diqJKxat-14">
          <mxGeometry relative="1" as="geometry">
            <mxPoint x="-400" y="300" as="targetPoint" />
            <Array as="points">
              <mxPoint x="-580" y="695" />
              <mxPoint x="-580" y="300" />
            </Array>
          </mxGeometry>
        </mxCell>
        <mxCell id="d_4f9FTK0BvBkenBgBJO-21" style="edgeStyle=orthogonalEdgeStyle;rounded=0;orthogonalLoop=1;jettySize=auto;html=1;entryX=1.01;entryY=0.3;entryDx=0;entryDy=0;entryPerimeter=0;startArrow=classic;startFill=1;endArrow=none;endFill=0;" edge="1" parent="1" source="8tCWAQmAQTB_diqJKxat-14" target="8tCWAQmAQTB_diqJKxat-13">
          <mxGeometry relative="1" as="geometry">
            <Array as="points">
              <mxPoint x="110" y="695" />
              <mxPoint x="110" y="191" />
            </Array>
          </mxGeometry>
        </mxCell>
        <mxCell id="d_4f9FTK0BvBkenBgBJO-23" style="edgeStyle=orthogonalEdgeStyle;rounded=0;orthogonalLoop=1;jettySize=auto;html=1;entryX=0.5;entryY=0;entryDx=0;entryDy=0;startArrow=block;startFill=0;endArrow=none;endFill=0;startSize=13;" edge="1" parent="1" source="8tCWAQmAQTB_diqJKxat-14" target="8tCWAQmAQTB_diqJKxat-15">
          <mxGeometry relative="1" as="geometry" />
        </mxCell>
        <mxCell id="8tCWAQmAQTB_diqJKxat-14" value="" style="ellipse;whiteSpace=wrap;html=1;" parent="1" vertex="1">
          <mxGeometry x="-480" y="660" width="100" height="70" as="geometry" />
        </mxCell>
        <mxCell id="d_4f9FTK0BvBkenBgBJO-25" style="edgeStyle=orthogonalEdgeStyle;rounded=0;orthogonalLoop=1;jettySize=auto;html=1;startArrow=classic;startFill=1;endArrow=none;endFill=0;" edge="1" parent="1" source="8tCWAQmAQTB_diqJKxat-15">
          <mxGeometry relative="1" as="geometry">
            <mxPoint x="-390" y="200" as="targetPoint" />
            <Array as="points">
              <mxPoint x="-670" y="845" />
              <mxPoint x="-670" y="200" />
            </Array>
          </mxGeometry>
        </mxCell>
        <mxCell id="d_4f9FTK0BvBkenBgBJO-28" style="edgeStyle=orthogonalEdgeStyle;rounded=0;orthogonalLoop=1;jettySize=auto;html=1;entryX=1;entryY=0;entryDx=0;entryDy=0;startArrow=none;startFill=0;endArrow=classic;endFill=1;" edge="1" parent="1" source="8tCWAQmAQTB_diqJKxat-15" target="8tCWAQmAQTB_diqJKxat-13">
          <mxGeometry relative="1" as="geometry">
            <Array as="points">
              <mxPoint x="190" y="845" />
              <mxPoint x="190" y="180" />
            </Array>
          </mxGeometry>
        </mxCell>
        <mxCell id="8tCWAQmAQTB_diqJKxat-15" value="" style="ellipse;whiteSpace=wrap;html=1;" parent="1" vertex="1">
          <mxGeometry x="-480" y="810" width="100" height="70" as="geometry" />
        </mxCell>
        <mxCell id="d_4f9FTK0BvBkenBgBJO-80" style="edgeStyle=orthogonalEdgeStyle;rounded=0;orthogonalLoop=1;jettySize=auto;html=1;startArrow=classic;startFill=1;endArrow=none;endFill=0;" edge="1" parent="1" source="8tCWAQmAQTB_diqJKxat-16">
          <mxGeometry relative="1" as="geometry">
            <mxPoint x="-370" y="200" as="targetPoint" />
            <Array as="points">
              <mxPoint x="-560" y="160" />
              <mxPoint x="-370" y="160" />
            </Array>
          </mxGeometry>
        </mxCell>
        <mxCell id="d_4f9FTK0BvBkenBgBJO-83" style="edgeStyle=orthogonalEdgeStyle;rounded=0;orthogonalLoop=1;jettySize=auto;html=1;entryX=0.5;entryY=1;entryDx=0;entryDy=0;startArrow=block;startFill=0;endArrow=none;endFill=0;targetPerimeterSpacing=0;endSize=0;sourcePerimeterSpacing=0;startSize=11;" edge="1" parent="1" source="8tCWAQmAQTB_diqJKxat-16" target="8tCWAQmAQTB_diqJKxat-21">
          <mxGeometry relative="1" as="geometry" />
        </mxCell>
        <mxCell id="d_4f9FTK0BvBkenBgBJO-86" style="edgeStyle=orthogonalEdgeStyle;rounded=0;orthogonalLoop=1;jettySize=auto;html=1;entryX=0.74;entryY=0.043;entryDx=0;entryDy=0;entryPerimeter=0;startArrow=none;startFill=0;endArrow=classic;endFill=1;exitX=1;exitY=0;exitDx=0;exitDy=0;" edge="1" parent="1" source="8tCWAQmAQTB_diqJKxat-16" target="8tCWAQmAQTB_diqJKxat-13">
          <mxGeometry relative="1" as="geometry">
            <Array as="points">
              <mxPoint x="-525" y="10" />
              <mxPoint x="24" y="10" />
            </Array>
          </mxGeometry>
        </mxCell>
        <mxCell id="8tCWAQmAQTB_diqJKxat-16" value="" style="ellipse;whiteSpace=wrap;html=1;" parent="1" vertex="1">
          <mxGeometry x="-610" y="40" width="100" height="70" as="geometry" />
        </mxCell>
        <mxCell id="d_4f9FTK0BvBkenBgBJO-4" style="edgeStyle=orthogonalEdgeStyle;rounded=0;orthogonalLoop=1;jettySize=auto;html=1;endArrow=none;endFill=0;startArrow=classic;startFill=1;" edge="1" parent="1" source="8tCWAQmAQTB_diqJKxat-20">
          <mxGeometry relative="1" as="geometry">
            <mxPoint x="-330" y="205" as="targetPoint" />
            <Array as="points">
              <mxPoint x="-330" y="205" />
            </Array>
          </mxGeometry>
        </mxCell>
        <mxCell id="8tCWAQmAQTB_diqJKxat-20" value="" style="ellipse;whiteSpace=wrap;html=1;" parent="1" vertex="1">
          <mxGeometry x="-250" y="170" width="100" height="70" as="geometry" />
        </mxCell>
        <mxCell id="8tCWAQmAQTB_diqJKxat-21" value="" style="ellipse;whiteSpace=wrap;html=1;" parent="1" vertex="1">
          <mxGeometry x="-610" y="-90" width="100" height="70" as="geometry" />
        </mxCell>
        <mxCell id="d_4f9FTK0BvBkenBgBJO-9" style="edgeStyle=orthogonalEdgeStyle;rounded=0;orthogonalLoop=1;jettySize=auto;html=1;startArrow=none;startFill=0;endArrow=classic;endFill=1;" edge="1" parent="1" source="8tCWAQmAQTB_diqJKxat-22">
          <mxGeometry relative="1" as="geometry">
            <mxPoint y="240" as="targetPoint" />
          </mxGeometry>
        </mxCell>
        <mxCell id="d_4f9FTK0BvBkenBgBJO-11" style="edgeStyle=orthogonalEdgeStyle;rounded=0;orthogonalLoop=1;jettySize=auto;html=1;startArrow=classic;startFill=1;endArrow=none;endFill=0;" edge="1" parent="1" source="8tCWAQmAQTB_diqJKxat-22">
          <mxGeometry relative="1" as="geometry">
            <mxPoint x="-320" y="320" as="targetPoint" />
          </mxGeometry>
        </mxCell>
        <mxCell id="d_4f9FTK0BvBkenBgBJO-12" style="edgeStyle=orthogonalEdgeStyle;rounded=0;orthogonalLoop=1;jettySize=auto;html=1;startArrow=classic;startFill=1;endArrow=none;endFill=0;entryX=0.5;entryY=0;entryDx=0;entryDy=0;startSize=6;" edge="1" parent="1" target="8tCWAQmAQTB_diqJKxat-27">
          <mxGeometry relative="1" as="geometry">
            <mxPoint x="-190" y="490" as="targetPoint" />
            <mxPoint x="20" y="280" as="sourcePoint" />
            <Array as="points">
              <mxPoint x="20" y="280" />
              <mxPoint x="20" y="500" />
            </Array>
          </mxGeometry>
        </mxCell>
        <mxCell id="8tCWAQmAQTB_diqJKxat-22" value="" style="ellipse;whiteSpace=wrap;html=1;" parent="1" vertex="1">
          <mxGeometry x="-240" y="360" width="100" height="70" as="geometry" />
        </mxCell>
        <mxCell id="abcYgRZNAxs5nldRiDmo-31" style="edgeStyle=orthogonalEdgeStyle;rounded=0;orthogonalLoop=1;jettySize=auto;html=1;startArrow=none;startFill=0;endArrow=classic;endFill=1;exitX=1;exitY=0.5;exitDx=0;exitDy=0;" parent="1" source="8tCWAQmAQTB_diqJKxat-24" edge="1">
          <mxGeometry relative="1" as="geometry">
            <mxPoint x="-20" y="240" as="targetPoint" />
            <Array as="points">
              <mxPoint x="-20" y="305" />
              <mxPoint x="-20" y="240" />
            </Array>
          </mxGeometry>
        </mxCell>
        <mxCell id="d_4f9FTK0BvBkenBgBJO-5" style="edgeStyle=orthogonalEdgeStyle;rounded=0;orthogonalLoop=1;jettySize=auto;html=1;startArrow=classic;startFill=1;endArrow=none;endFill=0;" edge="1" parent="1" source="8tCWAQmAQTB_diqJKxat-24">
          <mxGeometry relative="1" as="geometry">
            <mxPoint x="-310" y="305" as="targetPoint" />
          </mxGeometry>
        </mxCell>
        <mxCell id="8tCWAQmAQTB_diqJKxat-24" value="" style="ellipse;whiteSpace=wrap;html=1;" parent="1" vertex="1">
          <mxGeometry x="-240" y="270" width="100" height="70" as="geometry" />
        </mxCell>
        <mxCell id="d_4f9FTK0BvBkenBgBJO-7" style="edgeStyle=orthogonalEdgeStyle;rounded=0;orthogonalLoop=1;jettySize=auto;html=1;entryX=0.5;entryY=0;entryDx=0;entryDy=0;startArrow=none;startFill=0;endArrow=classic;endFill=1;" edge="1" parent="1" source="8tCWAQmAQTB_diqJKxat-25" target="8tCWAQmAQTB_diqJKxat-13">
          <mxGeometry relative="1" as="geometry">
            <Array as="points">
              <mxPoint y="75" />
            </Array>
          </mxGeometry>
        </mxCell>
        <mxCell id="8tCWAQmAQTB_diqJKxat-25" value="" style="ellipse;whiteSpace=wrap;html=1;" parent="1" vertex="1">
          <mxGeometry x="-405" y="40" width="100" height="70" as="geometry" />
        </mxCell>
        <mxCell id="d_4f9FTK0BvBkenBgBJO-150" style="edgeStyle=orthogonalEdgeStyle;rounded=0;orthogonalLoop=1;jettySize=auto;html=1;startArrow=classic;startFill=1;startSize=6;sourcePerimeterSpacing=0;endArrow=none;endFill=0;endSize=12;targetPerimeterSpacing=0;strokeWidth=1;" edge="1" parent="1" source="8tCWAQmAQTB_diqJKxat-27">
          <mxGeometry relative="1" as="geometry">
            <mxPoint x="-340" y="310" as="targetPoint" />
            <Array as="points">
              <mxPoint x="-230" y="470" />
              <mxPoint x="-340" y="470" />
            </Array>
          </mxGeometry>
        </mxCell>
        <mxCell id="8tCWAQmAQTB_diqJKxat-27" value="" style="ellipse;whiteSpace=wrap;html=1;" parent="1" vertex="1">
          <mxGeometry x="-240" y="500" width="100" height="70" as="geometry" />
        </mxCell>
        <mxCell id="d_4f9FTK0BvBkenBgBJO-37" style="edgeStyle=orthogonalEdgeStyle;rounded=0;orthogonalLoop=1;jettySize=auto;html=1;startArrow=none;startFill=0;endArrow=classic;endFill=1;entryX=0;entryY=0;entryDx=0;entryDy=0;" edge="1" parent="1" source="8tCWAQmAQTB_diqJKxat-30" target="d_4f9FTK0BvBkenBgBJO-35">
          <mxGeometry relative="1" as="geometry">
            <mxPoint x="350" y="180" as="targetPoint" />
          </mxGeometry>
        </mxCell>
        <mxCell id="8tCWAQmAQTB_diqJKxat-30" value="" style="ellipse;whiteSpace=wrap;html=1;" parent="1" vertex="1">
          <mxGeometry x="300" y="50" width="100" height="70" as="geometry" />
        </mxCell>
        <mxCell id="d_4f9FTK0BvBkenBgBJO-43" style="edgeStyle=orthogonalEdgeStyle;rounded=0;orthogonalLoop=1;jettySize=auto;html=1;startArrow=classic;startFill=1;endArrow=none;endFill=0;" edge="1" parent="1" source="8tCWAQmAQTB_diqJKxat-31">
          <mxGeometry relative="1" as="geometry">
            <mxPoint x="700" y="310" as="targetPoint" />
            <Array as="points">
              <mxPoint x="350" y="480" />
              <mxPoint x="700" y="480" />
            </Array>
          </mxGeometry>
        </mxCell>
        <mxCell id="d_4f9FTK0BvBkenBgBJO-44" style="edgeStyle=orthogonalEdgeStyle;rounded=0;orthogonalLoop=1;jettySize=auto;html=1;entryX=0.32;entryY=0.986;entryDx=0;entryDy=0;startArrow=none;startFill=0;endArrow=classic;endFill=1;entryPerimeter=0;" edge="1" parent="1" source="8tCWAQmAQTB_diqJKxat-31" target="d_4f9FTK0BvBkenBgBJO-35">
          <mxGeometry relative="1" as="geometry">
            <Array as="points">
              <mxPoint x="350" y="290" />
            </Array>
          </mxGeometry>
        </mxCell>
        <mxCell id="8tCWAQmAQTB_diqJKxat-31" value="" style="ellipse;whiteSpace=wrap;html=1;" parent="1" vertex="1">
          <mxGeometry x="300" y="345" width="100" height="70" as="geometry" />
        </mxCell>
        <mxCell id="d_4f9FTK0BvBkenBgBJO-55" style="edgeStyle=orthogonalEdgeStyle;rounded=0;orthogonalLoop=1;jettySize=auto;html=1;entryX=0.74;entryY=1.029;entryDx=0;entryDy=0;entryPerimeter=0;startArrow=none;startFill=0;endArrow=classic;endFill=1;" edge="1" parent="1" source="8tCWAQmAQTB_diqJKxat-32" target="d_4f9FTK0BvBkenBgBJO-35">
          <mxGeometry relative="1" as="geometry">
            <Array as="points">
              <mxPoint x="464" y="385" />
            </Array>
          </mxGeometry>
        </mxCell>
        <mxCell id="d_4f9FTK0BvBkenBgBJO-56" style="edgeStyle=orthogonalEdgeStyle;rounded=0;orthogonalLoop=1;jettySize=auto;html=1;startArrow=classic;startFill=1;endArrow=none;endFill=0;" edge="1" parent="1" source="8tCWAQmAQTB_diqJKxat-32">
          <mxGeometry relative="1" as="geometry">
            <mxPoint x="690" y="300" as="targetPoint" />
          </mxGeometry>
        </mxCell>
        <mxCell id="8tCWAQmAQTB_diqJKxat-32" value="" style="ellipse;whiteSpace=wrap;html=1;" parent="1" vertex="1">
          <mxGeometry x="500" y="345" width="100" height="70" as="geometry" />
        </mxCell>
        <mxCell id="8tCWAQmAQTB_diqJKxat-109" style="edgeStyle=orthogonalEdgeStyle;rounded=0;orthogonalLoop=1;jettySize=auto;html=1;startArrow=none;startFill=0;endArrow=classic;endFill=1;" parent="1" source="8tCWAQmAQTB_diqJKxat-33" target="8tCWAQmAQTB_diqJKxat-34" edge="1">
          <mxGeometry relative="1" as="geometry" />
        </mxCell>
        <mxCell id="8tCWAQmAQTB_diqJKxat-33" value="" style="ellipse;whiteSpace=wrap;html=1;" parent="1" vertex="1">
          <mxGeometry x="980" y="460" width="100" height="70" as="geometry" />
        </mxCell>
        <mxCell id="8tCWAQmAQTB_diqJKxat-34" value="" style="ellipse;whiteSpace=wrap;html=1;" parent="1" vertex="1">
          <mxGeometry x="980" y="610" width="100" height="70" as="geometry" />
        </mxCell>
        <mxCell id="d_4f9FTK0BvBkenBgBJO-89" style="edgeStyle=orthogonalEdgeStyle;rounded=0;orthogonalLoop=1;jettySize=auto;html=1;startArrow=block;startFill=0;endArrow=none;endFill=0;entryX=0.5;entryY=0;entryDx=0;entryDy=0;startSize=15;" edge="1" parent="1" source="8tCWAQmAQTB_diqJKxat-35" target="8tCWAQmAQTB_diqJKxat-33">
          <mxGeometry relative="1" as="geometry">
            <mxPoint x="1020" y="450" as="targetPoint" />
            <Array as="points">
              <mxPoint x="1030" y="310" />
              <mxPoint x="1030" y="310" />
            </Array>
          </mxGeometry>
        </mxCell>
        <mxCell id="d_4f9FTK0BvBkenBgBJO-94" style="edgeStyle=orthogonalEdgeStyle;rounded=0;orthogonalLoop=1;jettySize=auto;html=1;entryX=0.5;entryY=1;entryDx=0;entryDy=0;startArrow=classic;startFill=1;endArrow=none;endFill=0;" edge="1" parent="1" source="8tCWAQmAQTB_diqJKxat-35" target="8tCWAQmAQTB_diqJKxat-38">
          <mxGeometry relative="1" as="geometry" />
        </mxCell>
        <mxCell id="8tCWAQmAQTB_diqJKxat-35" value="" style="ellipse;whiteSpace=wrap;html=1;" parent="1" vertex="1">
          <mxGeometry x="970" y="200" width="100" height="70" as="geometry" />
        </mxCell>
        <mxCell id="d_4f9FTK0BvBkenBgBJO-59" style="edgeStyle=orthogonalEdgeStyle;rounded=0;orthogonalLoop=1;jettySize=auto;html=1;startArrow=classic;startFill=1;endArrow=none;endFill=0;" edge="1" parent="1" source="8tCWAQmAQTB_diqJKxat-36">
          <mxGeometry relative="1" as="geometry">
            <mxPoint x="740" y="180" as="targetPoint" />
            <Array as="points">
              <mxPoint x="740" y="60" />
            </Array>
          </mxGeometry>
        </mxCell>
        <mxCell id="8tCWAQmAQTB_diqJKxat-36" value="" style="ellipse;whiteSpace=wrap;html=1;" parent="1" vertex="1">
          <mxGeometry x="870" y="25" width="100" height="70" as="geometry" />
        </mxCell>
        <mxCell id="8tCWAQmAQTB_diqJKxat-37" value="" style="ellipse;whiteSpace=wrap;html=1;" parent="1" vertex="1">
          <mxGeometry x="200" y="220" width="100" height="70" as="geometry" />
        </mxCell>
        <mxCell id="8tCWAQmAQTB_diqJKxat-38" value="" style="ellipse;whiteSpace=wrap;html=1;" parent="1" vertex="1">
          <mxGeometry x="970" y="75" width="100" height="70" as="geometry" />
        </mxCell>
        <mxCell id="d_4f9FTK0BvBkenBgBJO-69" style="edgeStyle=orthogonalEdgeStyle;rounded=0;orthogonalLoop=1;jettySize=auto;html=1;startArrow=classic;startFill=1;endArrow=none;endFill=0;" edge="1" parent="1" source="8tCWAQmAQTB_diqJKxat-42">
          <mxGeometry relative="1" as="geometry">
            <mxPoint x="1230" y="215" as="targetPoint" />
            <Array as="points">
              <mxPoint x="1230" y="215" />
            </Array>
          </mxGeometry>
        </mxCell>
        <mxCell id="8tCWAQmAQTB_diqJKxat-42" value="" style="ellipse;whiteSpace=wrap;html=1;" parent="1" vertex="1">
          <mxGeometry x="1450" y="180" width="100" height="70" as="geometry" />
        </mxCell>
        <mxCell id="8tCWAQmAQTB_diqJKxat-43" value="" style="ellipse;whiteSpace=wrap;html=1;" parent="1" vertex="1">
          <mxGeometry x="760" y="610" width="100" height="70" as="geometry" />
        </mxCell>
        <mxCell id="d_4f9FTK0BvBkenBgBJO-63" style="edgeStyle=orthogonalEdgeStyle;rounded=0;orthogonalLoop=1;jettySize=auto;html=1;entryX=0.5;entryY=1;entryDx=0;entryDy=0;startArrow=none;startFill=0;endArrow=classic;endFill=1;" edge="1" parent="1" source="8tCWAQmAQTB_diqJKxat-44" target="8tCWAQmAQTB_diqJKxat-43">
          <mxGeometry relative="1" as="geometry" />
        </mxCell>
        <mxCell id="8tCWAQmAQTB_diqJKxat-44" value="" style="ellipse;whiteSpace=wrap;html=1;" parent="1" vertex="1">
          <mxGeometry x="760" y="760" width="100" height="70" as="geometry" />
        </mxCell>
        <mxCell id="d_4f9FTK0BvBkenBgBJO-66" style="edgeStyle=orthogonalEdgeStyle;rounded=0;orthogonalLoop=1;jettySize=auto;html=1;startArrow=classic;startFill=1;endArrow=none;endFill=0;" edge="1" parent="1" source="8tCWAQmAQTB_diqJKxat-45">
          <mxGeometry relative="1" as="geometry">
            <mxPoint x="790" y="260" as="targetPoint" />
            <Array as="points">
              <mxPoint x="920" y="390" />
              <mxPoint x="790" y="390" />
            </Array>
          </mxGeometry>
        </mxCell>
        <mxCell id="8tCWAQmAQTB_diqJKxat-45" value="" style="ellipse;whiteSpace=wrap;html=1;" parent="1" vertex="1">
          <mxGeometry x="870" y="610" width="100" height="70" as="geometry" />
        </mxCell>
        <mxCell id="abcYgRZNAxs5nldRiDmo-19" style="edgeStyle=orthogonalEdgeStyle;rounded=0;orthogonalLoop=1;jettySize=auto;html=1;entryX=0.5;entryY=1;entryDx=0;entryDy=0;startArrow=none;startFill=0;endArrow=classic;endFill=1;" parent="1" source="8tCWAQmAQTB_diqJKxat-46" target="8tCWAQmAQTB_diqJKxat-45" edge="1">
          <mxGeometry relative="1" as="geometry" />
        </mxCell>
        <mxCell id="8tCWAQmAQTB_diqJKxat-46" value="" style="ellipse;whiteSpace=wrap;html=1;" parent="1" vertex="1">
          <mxGeometry x="870" y="760" width="100" height="70" as="geometry" />
        </mxCell>
        <mxCell id="8tCWAQmAQTB_diqJKxat-102" style="edgeStyle=orthogonalEdgeStyle;rounded=0;orthogonalLoop=1;jettySize=auto;html=1;endArrow=none;endFill=0;startArrow=classic;startFill=1;" parent="1" source="8tCWAQmAQTB_diqJKxat-50" target="8tCWAQmAQTB_diqJKxat-51" edge="1">
          <mxGeometry relative="1" as="geometry">
            <Array as="points">
              <mxPoint x="1420" y="425" />
              <mxPoint x="1420" y="425" />
            </Array>
          </mxGeometry>
        </mxCell>
        <mxCell id="d_4f9FTK0BvBkenBgBJO-68" style="edgeStyle=orthogonalEdgeStyle;rounded=0;orthogonalLoop=1;jettySize=auto;html=1;startArrow=classic;startFill=1;endArrow=none;endFill=0;" edge="1" parent="1" source="8tCWAQmAQTB_diqJKxat-50">
          <mxGeometry relative="1" as="geometry">
            <mxPoint x="1230" y="240" as="targetPoint" />
            <Array as="points">
              <mxPoint x="1270" y="240" />
            </Array>
          </mxGeometry>
        </mxCell>
        <mxCell id="d_4f9FTK0BvBkenBgBJO-70" style="edgeStyle=orthogonalEdgeStyle;rounded=0;orthogonalLoop=1;jettySize=auto;html=1;entryX=0.5;entryY=0;entryDx=0;entryDy=0;startArrow=none;startFill=0;endArrow=classic;endFill=1;" edge="1" parent="1" source="8tCWAQmAQTB_diqJKxat-50" target="abcYgRZNAxs5nldRiDmo-24">
          <mxGeometry relative="1" as="geometry" />
        </mxCell>
        <mxCell id="8tCWAQmAQTB_diqJKxat-50" value="" style="ellipse;whiteSpace=wrap;html=1;" parent="1" vertex="1">
          <mxGeometry x="1220" y="390" width="100" height="70" as="geometry" />
        </mxCell>
        <mxCell id="8tCWAQmAQTB_diqJKxat-51" value="" style="ellipse;whiteSpace=wrap;html=1;" parent="1" vertex="1">
          <mxGeometry x="1450" y="390" width="100" height="70" as="geometry" />
        </mxCell>
        <mxCell id="d_4f9FTK0BvBkenBgBJO-88" style="edgeStyle=orthogonalEdgeStyle;rounded=0;orthogonalLoop=1;jettySize=auto;html=1;startArrow=classic;startFill=1;endArrow=none;endFill=0;" edge="1" parent="1" source="8tCWAQmAQTB_diqJKxat-52">
          <mxGeometry relative="1" as="geometry">
            <mxPoint x="1240" y="230" as="targetPoint" />
            <Array as="points">
              <mxPoint x="1410" y="305" />
              <mxPoint x="1410" y="230" />
            </Array>
          </mxGeometry>
        </mxCell>
        <mxCell id="8tCWAQmAQTB_diqJKxat-52" value="" style="ellipse;whiteSpace=wrap;html=1;" parent="1" vertex="1">
          <mxGeometry x="1450" y="270" width="100" height="70" as="geometry" />
        </mxCell>
        <mxCell id="d_4f9FTK0BvBkenBgBJO-107" style="edgeStyle=orthogonalEdgeStyle;rounded=0;orthogonalLoop=1;jettySize=auto;html=1;startArrow=none;startFill=0;startSize=14;sourcePerimeterSpacing=0;endArrow=classic;endFill=1;endSize=6;targetPerimeterSpacing=0;strokeWidth=1;entryX=0;entryY=0.714;entryDx=0;entryDy=0;entryPerimeter=0;" edge="1" parent="1" source="8tCWAQmAQTB_diqJKxat-55" target="d_4f9FTK0BvBkenBgBJO-35">
          <mxGeometry relative="1" as="geometry">
            <mxPoint x="370" y="270" as="targetPoint" />
            <Array as="points">
              <mxPoint x="290" y="550" />
              <mxPoint x="290" y="280" />
              <mxPoint x="370" y="280" />
              <mxPoint x="370" y="270" />
            </Array>
          </mxGeometry>
        </mxCell>
        <mxCell id="8tCWAQmAQTB_diqJKxat-55" value="" style="ellipse;whiteSpace=wrap;html=1;" parent="1" vertex="1">
          <mxGeometry x="675" y="515" width="100" height="70" as="geometry" />
        </mxCell>
        <mxCell id="8tCWAQmAQTB_diqJKxat-59" value="" style="ellipse;whiteSpace=wrap;html=1;" parent="1" vertex="1">
          <mxGeometry x="1350" y="100" width="100" height="70" as="geometry" />
        </mxCell>
        <mxCell id="d_4f9FTK0BvBkenBgBJO-16" style="edgeStyle=orthogonalEdgeStyle;rounded=0;orthogonalLoop=1;jettySize=auto;html=1;entryX=1;entryY=0.6;entryDx=0;entryDy=0;entryPerimeter=0;startArrow=classic;startFill=1;endArrow=none;endFill=0;" edge="1" parent="1" source="abcYgRZNAxs5nldRiDmo-10" target="8tCWAQmAQTB_diqJKxat-13">
          <mxGeometry relative="1" as="geometry">
            <Array as="points">
              <mxPoint x="-355" y="580" />
              <mxPoint x="70" y="580" />
              <mxPoint x="70" y="212" />
            </Array>
          </mxGeometry>
        </mxCell>
        <mxCell id="d_4f9FTK0BvBkenBgBJO-19" style="edgeStyle=orthogonalEdgeStyle;rounded=0;orthogonalLoop=1;jettySize=auto;html=1;startArrow=none;startFill=0;endArrow=classic;endFill=1;" edge="1" parent="1">
          <mxGeometry relative="1" as="geometry">
            <mxPoint x="-450" y="660" as="targetPoint" />
            <mxPoint x="-410" y="530" as="sourcePoint" />
            <Array as="points">
              <mxPoint x="-450" y="530" />
              <mxPoint x="-450" y="660" />
            </Array>
          </mxGeometry>
        </mxCell>
        <mxCell id="abcYgRZNAxs5nldRiDmo-10" value="" style="ellipse;whiteSpace=wrap;html=1;" parent="1" vertex="1">
          <mxGeometry x="-405" y="490" width="100" height="70" as="geometry" />
        </mxCell>
        <mxCell id="d_4f9FTK0BvBkenBgBJO-78" style="edgeStyle=orthogonalEdgeStyle;rounded=0;orthogonalLoop=1;jettySize=auto;html=1;entryX=1;entryY=0.5;entryDx=0;entryDy=0;startArrow=none;startFill=0;endArrow=block;endFill=0;startSize=6;endSize=12;" edge="1" parent="1" source="abcYgRZNAxs5nldRiDmo-16" target="8tCWAQmAQTB_diqJKxat-59">
          <mxGeometry relative="1" as="geometry" />
        </mxCell>
        <mxCell id="abcYgRZNAxs5nldRiDmo-16" value="" style="ellipse;whiteSpace=wrap;html=1;" parent="1" vertex="1">
          <mxGeometry x="1540" y="100" width="100" height="70" as="geometry" />
        </mxCell>
        <mxCell id="abcYgRZNAxs5nldRiDmo-24" value="" style="ellipse;whiteSpace=wrap;html=1;" parent="1" vertex="1">
          <mxGeometry x="1220" y="610" width="100" height="70" as="geometry" />
        </mxCell>
        <mxCell id="d_4f9FTK0BvBkenBgBJO-72" style="edgeStyle=orthogonalEdgeStyle;rounded=0;orthogonalLoop=1;jettySize=auto;html=1;entryX=0.5;entryY=1;entryDx=0;entryDy=0;startArrow=none;startFill=0;endArrow=classic;endFill=1;" edge="1" parent="1" source="abcYgRZNAxs5nldRiDmo-26" target="abcYgRZNAxs5nldRiDmo-24">
          <mxGeometry relative="1" as="geometry" />
        </mxCell>
        <mxCell id="abcYgRZNAxs5nldRiDmo-26" value="" style="ellipse;whiteSpace=wrap;html=1;" parent="1" vertex="1">
          <mxGeometry x="1220" y="770" width="100" height="70" as="geometry" />
        </mxCell>
        <mxCell id="abcYgRZNAxs5nldRiDmo-29" style="edgeStyle=orthogonalEdgeStyle;rounded=0;orthogonalLoop=1;jettySize=auto;html=1;entryX=0.5;entryY=1;entryDx=0;entryDy=0;startArrow=none;startFill=0;endArrow=classic;endFill=1;" parent="1" source="abcYgRZNAxs5nldRiDmo-28" target="8tCWAQmAQTB_diqJKxat-34" edge="1">
          <mxGeometry relative="1" as="geometry" />
        </mxCell>
        <mxCell id="abcYgRZNAxs5nldRiDmo-28" value="" style="ellipse;whiteSpace=wrap;html=1;" parent="1" vertex="1">
          <mxGeometry x="980" y="760" width="100" height="70" as="geometry" />
        </mxCell>
        <mxCell id="d_4f9FTK0BvBkenBgBJO-153" style="edgeStyle=orthogonalEdgeStyle;rounded=0;orthogonalLoop=1;jettySize=auto;html=1;startArrow=classic;startFill=1;startSize=6;sourcePerimeterSpacing=0;endArrow=none;endFill=0;endSize=12;targetPerimeterSpacing=0;strokeWidth=1;" edge="1" parent="1" source="abcYgRZNAxs5nldRiDmo-32" target="8tCWAQmAQTB_diqJKxat-1">
          <mxGeometry relative="1" as="geometry" />
        </mxCell>
        <mxCell id="abcYgRZNAxs5nldRiDmo-32" value="" style="ellipse;whiteSpace=wrap;html=1;" parent="1" vertex="1">
          <mxGeometry x="575" y="165" width="100" height="70" as="geometry" />
        </mxCell>
        <mxCell id="d_4f9FTK0BvBkenBgBJO-103" style="edgeStyle=orthogonalEdgeStyle;rounded=0;orthogonalLoop=1;jettySize=auto;html=1;startArrow=none;startFill=0;startSize=14;sourcePerimeterSpacing=0;endArrow=classic;endFill=1;endSize=6;targetPerimeterSpacing=0;strokeWidth=1;entryX=0.57;entryY=-0.029;entryDx=0;entryDy=0;entryPerimeter=0;" edge="1" parent="1" source="abcYgRZNAxs5nldRiDmo-33" target="d_4f9FTK0BvBkenBgBJO-35">
          <mxGeometry relative="1" as="geometry">
            <mxPoint x="510" y="130" as="targetPoint" />
          </mxGeometry>
        </mxCell>
        <mxCell id="d_4f9FTK0BvBkenBgBJO-154" style="edgeStyle=orthogonalEdgeStyle;rounded=0;orthogonalLoop=1;jettySize=auto;html=1;startArrow=classic;startFill=1;startSize=6;sourcePerimeterSpacing=0;endArrow=none;endFill=0;endSize=12;targetPerimeterSpacing=0;strokeWidth=1;" edge="1" parent="1" source="abcYgRZNAxs5nldRiDmo-33">
          <mxGeometry relative="1" as="geometry">
            <mxPoint x="710" y="180" as="targetPoint" />
          </mxGeometry>
        </mxCell>
        <mxCell id="abcYgRZNAxs5nldRiDmo-33" value="" style="ellipse;whiteSpace=wrap;html=1;" parent="1" vertex="1">
          <mxGeometry x="575" y="40" width="100" height="70" as="geometry" />
        </mxCell>
        <mxCell id="d_4f9FTK0BvBkenBgBJO-2" value="&lt;font style=&quot;font-size: 15px&quot;&gt;&amp;lt;&amp;lt;include&amp;gt;&amp;gt;&lt;/font&gt;" style="text;html=1;align=center;verticalAlign=middle;resizable=0;points=[];autosize=1;" vertex="1" parent="1">
          <mxGeometry x="-155" y="170" width="100" height="20" as="geometry" />
        </mxCell>
        <mxCell id="d_4f9FTK0BvBkenBgBJO-3" value="&lt;font style=&quot;font-size: 15px&quot;&gt;&amp;lt;&amp;lt;include&amp;gt;&amp;gt;&lt;/font&gt;" style="text;html=1;align=center;verticalAlign=middle;resizable=0;points=[];autosize=1;" vertex="1" parent="1">
          <mxGeometry x="-140" y="280" width="100" height="20" as="geometry" />
        </mxCell>
        <mxCell id="d_4f9FTK0BvBkenBgBJO-8" value="&lt;font style=&quot;font-size: 15px&quot;&gt;&amp;lt;&amp;lt;include&amp;gt;&amp;gt;&lt;/font&gt;" style="text;html=1;align=center;verticalAlign=middle;resizable=0;points=[];autosize=1;" vertex="1" parent="1">
          <mxGeometry x="-220" y="50" width="100" height="20" as="geometry" />
        </mxCell>
        <mxCell id="d_4f9FTK0BvBkenBgBJO-10" value="&lt;font style=&quot;font-size: 15px&quot;&gt;&amp;lt;&amp;lt;include&amp;gt;&amp;gt;&lt;/font&gt;" style="text;html=1;align=center;verticalAlign=middle;resizable=0;points=[];autosize=1;" vertex="1" parent="1">
          <mxGeometry x="-140" y="370" width="100" height="20" as="geometry" />
        </mxCell>
        <mxCell id="d_4f9FTK0BvBkenBgBJO-17" value="&lt;font style=&quot;font-size: 15px&quot;&gt;&amp;lt;&amp;lt;extend&amp;gt;&amp;gt;&lt;/font&gt;" style="text;html=1;align=center;verticalAlign=middle;resizable=0;points=[];autosize=1;" vertex="1" parent="1">
          <mxGeometry x="-90" y="550" width="100" height="20" as="geometry" />
        </mxCell>
        <mxCell id="d_4f9FTK0BvBkenBgBJO-20" value="&lt;font style=&quot;font-size: 15px&quot;&gt;&amp;lt;&amp;lt;extend&amp;gt;&amp;gt;&lt;/font&gt;" style="text;html=1;align=center;verticalAlign=middle;resizable=0;points=[];autosize=1;" vertex="1" parent="1">
          <mxGeometry x="-540" y="570" width="100" height="20" as="geometry" />
        </mxCell>
        <mxCell id="d_4f9FTK0BvBkenBgBJO-22" value="&lt;font style=&quot;font-size: 15px&quot;&gt;&amp;lt;&amp;lt;extend&amp;gt;&amp;gt;&lt;/font&gt;" style="text;html=1;align=center;verticalAlign=middle;resizable=0;points=[];autosize=1;" vertex="1" parent="1">
          <mxGeometry x="-90" y="670" width="100" height="20" as="geometry" />
        </mxCell>
        <mxCell id="d_4f9FTK0BvBkenBgBJO-29" value="&lt;font style=&quot;font-size: 15px&quot;&gt;&amp;lt;&amp;lt;include&amp;gt;&amp;gt;&lt;/font&gt;" style="text;html=1;align=center;verticalAlign=middle;resizable=0;points=[];autosize=1;" vertex="1" parent="1">
          <mxGeometry x="-90" y="820" width="100" height="20" as="geometry" />
        </mxCell>
        <mxCell id="d_4f9FTK0BvBkenBgBJO-95" style="edgeStyle=orthogonalEdgeStyle;rounded=0;orthogonalLoop=1;jettySize=auto;html=1;startArrow=classic;startFill=1;startSize=6;sourcePerimeterSpacing=0;endArrow=none;endFill=0;endSize=0;targetPerimeterSpacing=0;" edge="1" parent="1" source="d_4f9FTK0BvBkenBgBJO-30">
          <mxGeometry relative="1" as="geometry">
            <mxPoint x="-400" y="190" as="targetPoint" />
            <Array as="points">
              <mxPoint x="-400" y="180" />
            </Array>
          </mxGeometry>
        </mxCell>
        <mxCell id="d_4f9FTK0BvBkenBgBJO-96" style="edgeStyle=orthogonalEdgeStyle;rounded=0;orthogonalLoop=1;jettySize=auto;html=1;startArrow=classic;startFill=1;startSize=6;sourcePerimeterSpacing=0;endArrow=none;endFill=0;endSize=0;targetPerimeterSpacing=0;" edge="1" parent="1" source="d_4f9FTK0BvBkenBgBJO-30">
          <mxGeometry relative="1" as="geometry">
            <mxPoint x="50" y="146" as="targetPoint" />
            <Array as="points">
              <mxPoint x="-740" y="-130" />
              <mxPoint x="50" y="-130" />
            </Array>
          </mxGeometry>
        </mxCell>
        <mxCell id="d_4f9FTK0BvBkenBgBJO-30" value="" style="ellipse;whiteSpace=wrap;html=1;" vertex="1" parent="1">
          <mxGeometry x="-790" y="140" width="100" height="70" as="geometry" />
        </mxCell>
        <mxCell id="d_4f9FTK0BvBkenBgBJO-36" style="edgeStyle=orthogonalEdgeStyle;rounded=0;orthogonalLoop=1;jettySize=auto;html=1;startArrow=classic;startFill=1;endArrow=none;endFill=0;" edge="1" parent="1" source="d_4f9FTK0BvBkenBgBJO-35" target="8tCWAQmAQTB_diqJKxat-1">
          <mxGeometry relative="1" as="geometry">
            <Array as="points">
              <mxPoint x="650" y="255" />
              <mxPoint x="650" y="255" />
            </Array>
          </mxGeometry>
        </mxCell>
        <mxCell id="d_4f9FTK0BvBkenBgBJO-35" value="" style="ellipse;whiteSpace=wrap;html=1;" vertex="1" parent="1">
          <mxGeometry x="390" y="220" width="100" height="70" as="geometry" />
        </mxCell>
        <mxCell id="d_4f9FTK0BvBkenBgBJO-38" value="&lt;font style=&quot;font-size: 15px&quot;&gt;&amp;lt;&amp;lt;include&amp;gt;&amp;gt;&lt;/font&gt;" style="text;html=1;align=center;verticalAlign=middle;resizable=0;points=[];autosize=1;" vertex="1" parent="1">
          <mxGeometry x="250" y="140" width="100" height="20" as="geometry" />
        </mxCell>
        <mxCell id="d_4f9FTK0BvBkenBgBJO-45" value="&lt;font style=&quot;font-size: 15px&quot;&gt;&amp;lt;&amp;lt;include&amp;gt;&amp;gt;&lt;/font&gt;" style="text;html=1;align=center;verticalAlign=middle;resizable=0;points=[];autosize=1;" vertex="1" parent="1">
          <mxGeometry x="350" y="310" width="100" height="20" as="geometry" />
        </mxCell>
        <mxCell id="d_4f9FTK0BvBkenBgBJO-47" value="&lt;font style=&quot;font-size: 15px&quot;&gt;&amp;lt;&amp;lt;include&amp;gt;&amp;gt;&lt;/font&gt;" style="text;html=1;align=center;verticalAlign=middle;resizable=0;points=[];autosize=1;" vertex="1" parent="1">
          <mxGeometry x="290" y="225" width="100" height="20" as="geometry" />
        </mxCell>
        <mxCell id="d_4f9FTK0BvBkenBgBJO-57" value="&lt;font style=&quot;font-size: 15px&quot;&gt;&amp;lt;&amp;lt;include&amp;gt;&amp;gt;&lt;/font&gt;" style="text;html=1;align=center;verticalAlign=middle;resizable=0;points=[];autosize=1;" vertex="1" parent="1">
          <mxGeometry x="470" y="310" width="100" height="20" as="geometry" />
        </mxCell>
        <mxCell id="d_4f9FTK0BvBkenBgBJO-58" value="&lt;font style=&quot;font-size: 15px&quot;&gt;&amp;lt;&amp;lt;extend&amp;gt;&amp;gt;&lt;/font&gt;" style="text;html=1;align=center;verticalAlign=middle;resizable=0;points=[];autosize=1;" vertex="1" parent="1">
          <mxGeometry x="920" y="150" width="100" height="20" as="geometry" />
        </mxCell>
        <mxCell id="d_4f9FTK0BvBkenBgBJO-61" value="&lt;font style=&quot;font-size: 15px&quot;&gt;&amp;lt;&amp;lt;extend&amp;gt;&amp;gt;&lt;/font&gt;" style="text;html=1;align=center;verticalAlign=middle;resizable=0;points=[];autosize=1;" vertex="1" parent="1">
          <mxGeometry x="930" y="710" width="100" height="20" as="geometry" />
        </mxCell>
        <mxCell id="d_4f9FTK0BvBkenBgBJO-64" value="&lt;font style=&quot;font-size: 15px&quot;&gt;&amp;lt;&amp;lt;extend&amp;gt;&amp;gt;&lt;/font&gt;" style="text;html=1;align=center;verticalAlign=middle;resizable=0;points=[];autosize=1;" vertex="1" parent="1">
          <mxGeometry x="710" y="710" width="100" height="20" as="geometry" />
        </mxCell>
        <mxCell id="d_4f9FTK0BvBkenBgBJO-65" value="&lt;font style=&quot;font-size: 15px&quot;&gt;&amp;lt;&amp;lt;extend&amp;gt;&amp;gt;&lt;/font&gt;" style="text;html=1;align=center;verticalAlign=middle;resizable=0;points=[];autosize=1;" vertex="1" parent="1">
          <mxGeometry x="820" y="710" width="100" height="20" as="geometry" />
        </mxCell>
        <mxCell id="d_4f9FTK0BvBkenBgBJO-73" value="&lt;font style=&quot;font-size: 15px&quot;&gt;&amp;lt;&amp;lt;extend&amp;gt;&amp;gt;&lt;/font&gt;" style="text;html=1;align=center;verticalAlign=middle;resizable=0;points=[];autosize=1;" vertex="1" parent="1">
          <mxGeometry x="1160" y="720" width="100" height="20" as="geometry" />
        </mxCell>
        <mxCell id="d_4f9FTK0BvBkenBgBJO-74" value="&lt;font style=&quot;font-size: 15px&quot;&gt;&amp;lt;&amp;lt;extend&amp;gt;&amp;gt;&lt;/font&gt;" style="text;html=1;align=center;verticalAlign=middle;resizable=0;points=[];autosize=1;" vertex="1" parent="1">
          <mxGeometry x="1350" y="395" width="100" height="20" as="geometry" />
        </mxCell>
        <mxCell id="d_4f9FTK0BvBkenBgBJO-87" value="&lt;font style=&quot;font-size: 15px&quot;&gt;&amp;lt;&amp;lt;include&amp;gt;&amp;gt;&lt;/font&gt;" style="text;html=1;align=center;verticalAlign=middle;resizable=0;points=[];autosize=1;" vertex="1" parent="1">
          <mxGeometry x="-220" y="-20" width="100" height="20" as="geometry" />
        </mxCell>
        <mxCell id="d_4f9FTK0BvBkenBgBJO-97" value="&lt;font style=&quot;font-size: 15px&quot;&gt;&amp;lt;&amp;lt;include&amp;gt;&amp;gt;&lt;/font&gt;" style="text;html=1;align=center;verticalAlign=middle;resizable=0;points=[];autosize=1;" vertex="1" parent="1">
          <mxGeometry x="-210" y="-170" width="100" height="20" as="geometry" />
        </mxCell>
        <mxCell id="d_4f9FTK0BvBkenBgBJO-101" style="edgeStyle=orthogonalEdgeStyle;rounded=0;orthogonalLoop=1;jettySize=auto;html=1;entryX=0;entryY=0.5;entryDx=0;entryDy=0;startArrow=none;startFill=0;endArrow=classic;endFill=1;exitX=1;exitY=0.5;exitDx=0;exitDy=0;" edge="1" parent="1" source="8tCWAQmAQTB_diqJKxat-37" target="d_4f9FTK0BvBkenBgBJO-35">
          <mxGeometry relative="1" as="geometry">
            <mxPoint x="320" y="250" as="sourcePoint" />
            <mxPoint x="320" y="350" as="targetPoint" />
          </mxGeometry>
        </mxCell>
        <mxCell id="d_4f9FTK0BvBkenBgBJO-102" style="edgeStyle=orthogonalEdgeStyle;rounded=0;orthogonalLoop=1;jettySize=auto;html=1;entryX=0.94;entryY=0.214;entryDx=0;entryDy=0;startArrow=none;startFill=0;endArrow=classic;endFill=1;exitX=0;exitY=0.5;exitDx=0;exitDy=0;entryPerimeter=0;" edge="1" parent="1" source="abcYgRZNAxs5nldRiDmo-32" target="d_4f9FTK0BvBkenBgBJO-35">
          <mxGeometry relative="1" as="geometry">
            <mxPoint x="480" y="160" as="sourcePoint" />
            <mxPoint x="480" y="260" as="targetPoint" />
          </mxGeometry>
        </mxCell>
        <mxCell id="d_4f9FTK0BvBkenBgBJO-105" value="&lt;font style=&quot;font-size: 15px&quot;&gt;&amp;lt;&amp;lt;include&amp;gt;&amp;gt;&lt;/font&gt;" style="text;html=1;align=center;verticalAlign=middle;resizable=0;points=[];autosize=1;" vertex="1" parent="1">
          <mxGeometry x="460" y="50" width="100" height="20" as="geometry" />
        </mxCell>
        <mxCell id="d_4f9FTK0BvBkenBgBJO-106" value="&lt;font style=&quot;font-size: 15px&quot;&gt;&amp;lt;&amp;lt;include&amp;gt;&amp;gt;&lt;/font&gt;" style="text;html=1;align=center;verticalAlign=middle;resizable=0;points=[];autosize=1;" vertex="1" parent="1">
          <mxGeometry x="480" y="165" width="100" height="20" as="geometry" />
        </mxCell>
        <mxCell id="d_4f9FTK0BvBkenBgBJO-108" value="&lt;font style=&quot;font-size: 15px&quot;&gt;&amp;lt;&amp;lt;include&amp;gt;&amp;gt;&lt;/font&gt;" style="text;html=1;align=center;verticalAlign=middle;resizable=0;points=[];autosize=1;" vertex="1" parent="1">
          <mxGeometry x="470" y="525" width="100" height="20" as="geometry" />
        </mxCell>
        <mxCell id="d_4f9FTK0BvBkenBgBJO-109" value="&lt;span&gt;U1:登录&lt;/span&gt;" style="text;html=1;align=center;verticalAlign=middle;resizable=0;points=[];autosize=1;" vertex="1" parent="1">
          <mxGeometry y="245" width="60" height="20" as="geometry" />
        </mxCell>
        <mxCell id="d_4f9FTK0BvBkenBgBJO-110" value="&lt;span&gt;U10:&lt;/span&gt;&lt;span&gt;修改评论&lt;/span&gt;" style="text;html=1;align=center;verticalAlign=middle;resizable=0;points=[];autosize=1;" vertex="1" parent="1">
          <mxGeometry x="-785" y="220" width="90" height="20" as="geometry" />
        </mxCell>
        <mxCell id="d_4f9FTK0BvBkenBgBJO-111" value="&lt;span&gt;U9:&lt;/span&gt;&lt;span&gt;注册&lt;/span&gt;" style="text;html=1;align=center;verticalAlign=middle;resizable=0;points=[];autosize=1;" vertex="1" parent="1">
          <mxGeometry x="-630" y="245" width="60" height="20" as="geometry" />
        </mxCell>
        <mxCell id="d_4f9FTK0BvBkenBgBJO-112" value="&lt;span&gt;U12:&lt;/span&gt;&lt;span&gt;发布评论&lt;/span&gt;" style="text;html=1;align=center;verticalAlign=middle;resizable=0;points=[];autosize=1;" vertex="1" parent="1">
          <mxGeometry x="-515" y="-70" width="90" height="20" as="geometry" />
        </mxCell>
        <mxCell id="d_4f9FTK0BvBkenBgBJO-113" value="&lt;span&gt;U13:&lt;/span&gt;&lt;span&gt;收藏商品&lt;/span&gt;" style="text;html=1;align=center;verticalAlign=middle;resizable=0;points=[];autosize=1;" vertex="1" parent="1">
          <mxGeometry x="-320" y="95" width="90" height="20" as="geometry" />
        </mxCell>
        <mxCell id="d_4f9FTK0BvBkenBgBJO-114" value="&lt;span&gt;U11:&lt;/span&gt;&lt;span&gt;购买商品&lt;/span&gt;" style="text;html=1;align=center;verticalAlign=middle;resizable=0;points=[];autosize=1;" vertex="1" parent="1">
          <mxGeometry x="-695" y="65" width="90" height="20" as="geometry" />
        </mxCell>
        <mxCell id="d_4f9FTK0BvBkenBgBJO-115" value="&lt;span&gt;U2:&lt;/span&gt;&lt;span&gt;修改个人信息&lt;/span&gt;" style="text;html=1;align=center;verticalAlign=middle;resizable=0;points=[];autosize=1;" vertex="1" parent="1">
          <mxGeometry x="-255" y="145" width="110" height="20" as="geometry" />
        </mxCell>
        <mxCell id="d_4f9FTK0BvBkenBgBJO-116" value="&lt;span&gt;U3:&lt;/span&gt;&lt;span&gt;修改密码&lt;/span&gt;" style="text;html=1;align=center;verticalAlign=middle;resizable=0;points=[];autosize=1;" vertex="1" parent="1">
          <mxGeometry x="-230" y="250" width="80" height="20" as="geometry" />
        </mxCell>
        <mxCell id="d_4f9FTK0BvBkenBgBJO-117" value="&lt;span&gt;U4:&lt;/span&gt;&lt;span&gt;领取优惠券&lt;/span&gt;" style="text;html=1;align=center;verticalAlign=middle;resizable=0;points=[];autosize=1;" vertex="1" parent="1">
          <mxGeometry x="-305" y="420" width="90" height="20" as="geometry" />
        </mxCell>
        <mxCell id="d_4f9FTK0BvBkenBgBJO-118" value="&lt;span&gt;U5:&lt;/span&gt;&lt;span&gt;使用优惠券&lt;/span&gt;" style="text;html=1;align=center;verticalAlign=middle;resizable=0;points=[];autosize=1;" vertex="1" parent="1">
          <mxGeometry x="-140" y="525" width="90" height="20" as="geometry" />
        </mxCell>
        <mxCell id="d_4f9FTK0BvBkenBgBJO-119" value="&lt;span&gt;U6:&lt;/span&gt;&lt;span&gt;查看话题&lt;/span&gt;" style="text;html=1;align=center;verticalAlign=middle;resizable=0;points=[];autosize=1;" vertex="1" parent="1">
          <mxGeometry x="-465" y="480" width="80" height="20" as="geometry" />
        </mxCell>
        <mxCell id="d_4f9FTK0BvBkenBgBJO-120" value="&lt;span&gt;U7:&lt;/span&gt;&lt;span&gt;浏览商品&lt;/span&gt;" style="text;html=1;align=center;verticalAlign=middle;resizable=0;points=[];autosize=1;" vertex="1" parent="1">
          <mxGeometry x="-415" y="730" width="80" height="20" as="geometry" />
        </mxCell>
        <mxCell id="d_4f9FTK0BvBkenBgBJO-121" value="&lt;span&gt;U8:&lt;/span&gt;&lt;span&gt;添加商品至购物车&lt;/span&gt;" style="text;html=1;align=center;verticalAlign=middle;resizable=0;points=[];autosize=1;" vertex="1" parent="1">
          <mxGeometry x="-500" y="890" width="130" height="20" as="geometry" />
        </mxCell>
        <mxCell id="d_4f9FTK0BvBkenBgBJO-122" value="&lt;span&gt;U14:&lt;/span&gt;&lt;span&gt;修改店铺信息&lt;/span&gt;&lt;span&gt;&lt;br&gt;&lt;br&gt;&lt;/span&gt;" style="text;html=1;align=center;verticalAlign=middle;resizable=0;points=[];autosize=1;" vertex="1" parent="1">
          <mxGeometry x="205" y="190" width="110" height="30" as="geometry" />
        </mxCell>
        <mxCell id="d_4f9FTK0BvBkenBgBJO-123" value="&lt;span&gt;U15:&lt;/span&gt;&lt;span&gt;上架商品&lt;/span&gt;" style="text;html=1;align=center;verticalAlign=middle;resizable=0;points=[];autosize=1;" vertex="1" parent="1">
          <mxGeometry x="215" y="65" width="90" height="20" as="geometry" />
        </mxCell>
        <mxCell id="d_4f9FTK0BvBkenBgBJO-124" value="&lt;span&gt;U16:&lt;/span&gt;&lt;span&gt;设置团购商品&lt;/span&gt;" style="text;html=1;align=center;verticalAlign=middle;resizable=0;points=[];autosize=1;" vertex="1" parent="1">
          <mxGeometry x="575" y="10" width="110" height="20" as="geometry" />
        </mxCell>
        <mxCell id="d_4f9FTK0BvBkenBgBJO-125" value="&lt;span&gt;U17:&lt;/span&gt;&lt;span&gt;设置预售商品&lt;/span&gt;" style="text;html=1;align=center;verticalAlign=middle;resizable=0;points=[];autosize=1;" vertex="1" parent="1">
          <mxGeometry x="570" y="140" width="110" height="20" as="geometry" />
        </mxCell>
        <mxCell id="d_4f9FTK0BvBkenBgBJO-126" value="&lt;span&gt;U18:&lt;/span&gt;&lt;span&gt;修改商品信息&lt;/span&gt;" style="text;html=1;align=center;verticalAlign=middle;resizable=0;points=[];autosize=1;" vertex="1" parent="1">
          <mxGeometry x="350" y="420" width="110" height="20" as="geometry" />
        </mxCell>
        <mxCell id="d_4f9FTK0BvBkenBgBJO-127" value="&lt;span&gt;U38:&lt;/span&gt;&lt;span&gt;下架商品&lt;/span&gt;" style="text;html=1;align=center;verticalAlign=middle;resizable=0;points=[];autosize=1;" vertex="1" parent="1">
          <mxGeometry x="515" y="430" width="90" height="20" as="geometry" />
        </mxCell>
        <mxCell id="d_4f9FTK0BvBkenBgBJO-128" value="&lt;span&gt;U1:登录&lt;/span&gt;" style="text;html=1;align=center;verticalAlign=middle;resizable=0;points=[];autosize=1;" vertex="1" parent="1">
          <mxGeometry x="480" y="270" width="60" height="20" as="geometry" />
        </mxCell>
        <mxCell id="d_4f9FTK0BvBkenBgBJO-129" value="&lt;span&gt;U19:&lt;/span&gt;&lt;span&gt;回复评论&lt;/span&gt;" style="text;html=1;align=center;verticalAlign=middle;resizable=0;points=[];autosize=1;" vertex="1" parent="1">
          <mxGeometry x="680" y="590" width="90" height="20" as="geometry" />
        </mxCell>
        <mxCell id="d_4f9FTK0BvBkenBgBJO-131" value="&lt;span&gt;U20:&lt;/span&gt;&lt;span&gt;新增商品类别&lt;/span&gt;" style="text;html=1;align=center;verticalAlign=middle;resizable=0;points=[];autosize=1;" vertex="1" parent="1">
          <mxGeometry x="810" y="575" width="110" height="20" as="geometry" />
        </mxCell>
        <mxCell id="d_4f9FTK0BvBkenBgBJO-132" value="&lt;span&gt;U21:&lt;/span&gt;&lt;span&gt;新增品牌&lt;/span&gt;" style="text;html=1;align=center;verticalAlign=middle;resizable=0;points=[];autosize=1;" vertex="1" parent="1">
          <mxGeometry x="920" y="575" width="90" height="20" as="geometry" />
        </mxCell>
        <mxCell id="d_4f9FTK0BvBkenBgBJO-133" value="&lt;span&gt;U23:&lt;/span&gt;&lt;span&gt;发放优惠券&lt;/span&gt;" style="text;html=1;align=center;verticalAlign=middle;resizable=0;points=[];autosize=1;" vertex="1" parent="1">
          <mxGeometry x="1040" y="575" width="100" height="20" as="geometry" />
        </mxCell>
        <mxCell id="d_4f9FTK0BvBkenBgBJO-134" value="&lt;span&gt;U24:&lt;/span&gt;&lt;span&gt;变更商品类别&lt;/span&gt;" style="text;html=1;align=center;verticalAlign=middle;resizable=0;points=[];autosize=1;" vertex="1" parent="1">
          <mxGeometry x="755" y="840" width="110" height="20" as="geometry" />
        </mxCell>
        <mxCell id="d_4f9FTK0BvBkenBgBJO-135" value="&lt;span&gt;U25:&lt;/span&gt;&lt;span&gt;变更商品品牌&lt;/span&gt;" style="text;html=1;align=center;verticalAlign=middle;resizable=0;points=[];autosize=1;" vertex="1" parent="1">
          <mxGeometry x="865" y="840" width="110" height="20" as="geometry" />
        </mxCell>
        <mxCell id="d_4f9FTK0BvBkenBgBJO-136" value="&lt;span&gt;U26:&lt;/span&gt;&lt;span&gt;作废优惠券&lt;/span&gt;" style="text;html=1;align=center;verticalAlign=middle;resizable=0;points=[];autosize=1;" vertex="1" parent="1">
          <mxGeometry x="980" y="840" width="100" height="20" as="geometry" />
        </mxCell>
        <mxCell id="d_4f9FTK0BvBkenBgBJO-137" value="&lt;span&gt;U22:&lt;/span&gt;&lt;span&gt;创建优惠券&lt;/span&gt;" style="text;html=1;align=center;verticalAlign=middle;resizable=0;points=[];autosize=1;" vertex="1" parent="1">
          <mxGeometry x="1075" y="485" width="100" height="20" as="geometry" />
        </mxCell>
        <mxCell id="d_4f9FTK0BvBkenBgBJO-138" value="&lt;span&gt;U27:&lt;/span&gt;&lt;span&gt;开启优惠活动&lt;/span&gt;&lt;span&gt;&lt;br&gt;:&lt;/span&gt;" style="text;html=1;align=center;verticalAlign=middle;resizable=0;points=[];autosize=1;" vertex="1" parent="1">
          <mxGeometry x="890" y="265" width="110" height="30" as="geometry" />
        </mxCell>
        <mxCell id="d_4f9FTK0BvBkenBgBJO-139" value="&lt;span&gt;U29:&lt;/span&gt;&lt;span&gt;关闭优惠活动&lt;/span&gt;" style="text;html=1;align=center;verticalAlign=middle;resizable=0;points=[];autosize=1;" vertex="1" parent="1">
          <mxGeometry x="865" y="-10" width="110" height="20" as="geometry" />
        </mxCell>
        <mxCell id="d_4f9FTK0BvBkenBgBJO-140" value="&lt;span&gt;U28:&lt;/span&gt;&lt;span&gt;修改活动信息&lt;/span&gt;" style="text;html=1;align=center;verticalAlign=middle;resizable=0;points=[];autosize=1;" vertex="1" parent="1">
          <mxGeometry x="1065" y="100" width="110" height="20" as="geometry" />
        </mxCell>
        <mxCell id="d_4f9FTK0BvBkenBgBJO-141" value="&lt;span&gt;U30:&lt;/span&gt;&lt;span&gt;开启话题&lt;/span&gt;" style="text;html=1;align=center;verticalAlign=middle;resizable=0;points=[];autosize=1;" vertex="1" parent="1">
          <mxGeometry x="1130" y="410" width="90" height="20" as="geometry" />
        </mxCell>
        <mxCell id="d_4f9FTK0BvBkenBgBJO-142" value="&lt;span&gt;U33:&lt;/span&gt;&lt;span&gt;修改话题信息&lt;/span&gt;" style="text;html=1;align=center;verticalAlign=middle;resizable=0;points=[];autosize=1;" vertex="1" parent="1">
          <mxGeometry x="1450" y="480" width="110" height="20" as="geometry" />
        </mxCell>
        <mxCell id="d_4f9FTK0BvBkenBgBJO-143" value="&lt;span&gt;U31:&lt;/span&gt;&lt;span&gt;向话题中添加商品&lt;/span&gt;" style="text;html=1;align=center;verticalAlign=middle;resizable=0;points=[];autosize=1;" vertex="1" parent="1">
          <mxGeometry x="1320" y="635" width="140" height="20" as="geometry" />
        </mxCell>
        <mxCell id="d_4f9FTK0BvBkenBgBJO-144" value="&lt;span&gt;U32:&lt;/span&gt;&lt;span&gt;将商品从话题中移除&lt;/span&gt;" style="text;html=1;align=center;verticalAlign=middle;resizable=0;points=[];autosize=1;" vertex="1" parent="1">
          <mxGeometry x="1195" y="850" width="150" height="20" as="geometry" />
        </mxCell>
        <mxCell id="d_4f9FTK0BvBkenBgBJO-145" value="&lt;span&gt;U34:&lt;/span&gt;&lt;span&gt;关闭话题&lt;/span&gt;" style="text;html=1;align=center;verticalAlign=middle;resizable=0;points=[];autosize=1;" vertex="1" parent="1">
          <mxGeometry x="1545" y="295" width="90" height="20" as="geometry" />
        </mxCell>
        <mxCell id="d_4f9FTK0BvBkenBgBJO-146" value="&lt;span&gt;U36:&lt;/span&gt;&lt;span&gt;查看评论&lt;/span&gt;" style="text;html=1;align=center;verticalAlign=middle;resizable=0;points=[];autosize=1;" vertex="1" parent="1">
          <mxGeometry x="1355" y="80" width="90" height="20" as="geometry" />
        </mxCell>
        <mxCell id="d_4f9FTK0BvBkenBgBJO-147" value="&lt;span&gt;U37:&lt;/span&gt;&lt;span&gt;删除评论&lt;/span&gt;" style="text;html=1;align=center;verticalAlign=middle;resizable=0;points=[];autosize=1;" vertex="1" parent="1">
          <mxGeometry x="1545" y="75" width="90" height="20" as="geometry" />
        </mxCell>
        <mxCell id="d_4f9FTK0BvBkenBgBJO-148" value="&lt;span&gt;U35:&lt;/span&gt;&lt;span&gt;审核评论&lt;/span&gt;" style="text;html=1;align=center;verticalAlign=middle;resizable=0;points=[];autosize=1;" vertex="1" parent="1">
          <mxGeometry x="1545" y="205" width="90" height="20" as="geometry" />
        </mxCell>
        <mxCell id="d_4f9FTK0BvBkenBgBJO-151" value="&lt;font style=&quot;font-size: 15px&quot;&gt;&amp;lt;&amp;lt;include&amp;gt;&amp;gt;&lt;/font&gt;" style="text;html=1;align=center;verticalAlign=middle;resizable=0;points=[];autosize=1;" vertex="1" parent="1">
          <mxGeometry x="-140" y="465" width="100" height="20" as="geometry" />
        </mxCell>
      </root>
    </mxGraphModel>
  </diagram>
</mxfile>
